HIERARCHY
ROOT Hips
{
  OFFSET 265.287 66.7526 -254.649
  CHANNELS 6 Xposition Yposition Zposition Zrotation Xrotation Yrotation
  JOINT LeftUpLeg
  {
    OFFSET 8.64259 1.95398 -2.38835
    CHANNELS 3 Zrotation Xrotation Yrotation
    JOINT LeftLeg
    {
      OFFSET 43.7702 0 0
      CHANNELS 3 Zrotation Xrotation Yrotation
      JOINT LeftFoot
      {
        OFFSET 40.6238 0 0
        CHANNELS 3 Zrotation Xrotation Yrotation
        JOINT LeftToeBase
        {
          OFFSET 12.7242 0 0
          CHANNELS 3 Zrotation Xrotation Yrotation
          End Site
          {
            OFFSET 0 0 0
          }
        }
      }
    }
  }
  JOINT RightUpLeg
  {
    OFFSET -8.2249 1.95398 -2.59336
    CHANNELS 3 Zrotation Xrotation Yrotation
    JOINT RightLeg
    {
      OFFSET 43.5653 0 0
      CHANNELS 3 Zrotation Xrotation Yrotation
      JOINT RightFoot
      {
        OFFSET 40.6238 0 0
        CHANNELS 3 Zrotation Xrotation Yrotation
        JOINT RightToeBase
        {
          OFFSET 12.7242 0 0
          CHANNELS 3 Zrotation Xrotation Yrotation
          End Site
          {
            OFFSET 0 0 0
          }
        }
      }
    }
  }
  JOINT Spine
  {
    OFFSET 0.165834 0.87714 6.61349
    CHANNELS 3 Zrotation Xrotation Yrotation
    JOINT Spine1
    {
      OFFSET 7.38963 1.71661e-005 0
      CHANNELS 3 Zrotation Xrotation Yrotation
      JOINT Spine2
      {
        OFFSET 11.9445 1.14441e-005 0
        CHANNELS 3 Zrotation Xrotation Yrotation
        JOINT Spine3
        {
          OFFSET 14.7254 4.19617e-005 0
          CHANNELS 3 Zrotation Xrotation Yrotation
          JOINT Spine4
          {
            OFFSET 10.9679 0 0
            CHANNELS 3 Zrotation Xrotation Yrotation
            JOINT RightShoulder
            {
              OFFSET 2.46616 -1.6653 3.69651
              CHANNELS 3 Zrotation Xrotation Yrotation
              JOINT RightArm
              {
                OFFSET 13.0012 0 0
                CHANNELS 3 Zrotation Xrotation Yrotation
                JOINT RightForeArm
                {
                  OFFSET 28.7848 1.52588e-005 0
                  CHANNELS 3 Zrotation Xrotation Yrotation
                  JOINT RightHand
                  {
                    OFFSET 26.5688 1.52588e-005 0
                    CHANNELS 3 Zrotation Xrotation Yrotation
                    End Site
                    {
                      OFFSET 0 0 0
                    }
                  }
                }
              }
            }
            JOINT LeftShoulder
            {
              OFFSET 2.38034 -1.29275 -3.7523
              CHANNELS 3 Zrotation Xrotation Yrotation
              JOINT LeftArm
              {
                OFFSET 16.3182 6.10351e-005 0
                CHANNELS 3 Zrotation Xrotation Yrotation
                JOINT LeftForeArm
                {
                  OFFSET 27.0901 0 0
                  CHANNELS 3 Zrotation Xrotation Yrotation
                  JOINT LeftHand
                  {
                    OFFSET 24.5451 1.52588e-005 0
                    CHANNELS 3 Zrotation Xrotation Yrotation
                    End Site
                    {
                      OFFSET 0 0 0
                    }
                  }
                }
              }
            }
            JOINT Neck
            {
              OFFSET 5.0226 -0.0266342 0
              CHANNELS 3 Zrotation Xrotation Yrotation
              JOINT Head
              {
                OFFSET 6.69364 2.86102e-005 0
                CHANNELS 3 Zrotation Xrotation Yrotation
                End Site
                {
                  OFFSET 0 0 0
                }
              }
            }
          }
        }
      }
    }
  }
}
MOTION
Frames:	6
Frame Time:	0.0416667
259.272 79.0711 -265.815 -91.9343 -42.2262 -91.8492 -125.982 15.0434 103.428 37.3159 15.8836 -70.489 37.1449 20.312 -7.77337 -3.29153 5.85743 10.9491 -174.229 71.3869 89.5801 -86.0583 -58.122 -5.67743 8.98393 25.5196 16.5043 -50.0552 -27.4308 41.415 1.73161 5.75552 -90.1922 15.3834 3.32689 -0.898685 3.7163 3.28409 -1.04438 -18.8531 3.44297 0.143909 1.15954 3.44298 0.143903 122.216 -42.1218 -48.2123 73.4589 -0.747201 -72.1234 -35.5011 25.5933 -0.0197788 -85.5312 33.9058 -41.9684 -114.668 -55.2286 45.9375 -17.313 -10.8376 68.1377 22.2797 5.96867 -80.6782 -22.4913 -4.15646 18.2621 -61.2996 12.1017 -16.6263 40.408 24.9084 47.9909 
259.494 79.0103 -266.03 -92.0047 -42.285 -92.0038 -125.639 14.9756 103.199 37.6265 15.9396 -70.6286 36.8912 20.3296 -7.86102 -2.89171 5.7914 10.8779 -174.12 71.489 89.4641 -86.646 -57.8992 -5.86246 8.41853 25.5425 17.1588 -50.0309 -26.3901 40.3953 1.7183 5.76978 -90.1744 15.3542 3.30976 -0.858769 3.68707 3.26875 -1.00375 -18.882 3.41466 0.176813 1.13064 3.41466 0.176806 122.218 -42.3821 -48.321 73.028 -0.814339 -72.2961 -35.2914 27.9809 -0.0201994 -84.5998 35.3297 -44.0812 -114.512 -55.1038 46.0778 -17.3942 -10.8159 68.057 22.1532 5.89552 -80.924 -22.5086 -4.23898 18.6898 -61.2205 12.1302 -16.6326 40.5832 25.0128 47.9678 
260.138 78.8366 -266.654 -92.213 -42.4563 -92.4548 -124.676 14.7741 102.537 38.5164 16.1012 -71.0209 36.1468 20.3653 -8.09391 -1.70749 5.59139 10.6731 -173.79 71.7519 89.1171 -88.3038 -57.2302 -6.3889 6.76346 25.5809 19.0908 -49.6851 -23.347 37.5221 1.67933 5.81148 -90.1225 15.2687 3.25927 -0.742944 3.60155 3.22342 -0.885821 -18.9665 3.33171 0.27205 1.0462 3.33172 0.272051 122.22 -43.1371 -48.6399 71.7743 -0.997585 -72.7958 -34.7477 35.4515 -0.0218038 -80.6119 39.3606 -51.3032 -114.056 -54.7374 46.4876 -17.6336 -10.7527 67.8185 21.7872 5.68518 -81.6368 -22.5579 -4.47912 19.9289 -60.9878 12.2134 -16.6513 41.09 25.3141 47.895 
261.17 78.5635 -267.653 -92.5603 -42.7342 -93.1855 -123.231 14.4377 101.482 39.9055 16.3564 -71.615 34.9325 20.3798 -8.40505 0.255488 5.24472 10.3572 -173.221 72.0681 88.5311 -90.8153 -56.082 -7.19699 4.10868 25.5481 22.2456 -48.318 -18.4857 33.1088 1.61569 5.87935 -90.0396 15.1297 3.17575 -0.557414 3.46244 3.14813 -0.696788 -19.1037 3.1963 0.423794 0.908957 3.19632 0.423795 122.21 -44.3454 -49.1602 69.764 -1.25452 -73.5898 -34.0635 49.102 -0.026264 -69.37 44.4503 -66.8362 -113.32 -54.1365 47.1537 -18.0275 -10.6508 67.4263 21.2028 5.35692 -82.7827 -22.6339 -4.86794 21.9151 -60.6053 12.3501 -16.6813 41.8963 25.792 47.7612 
262.552 78.2039 -268.987 -93.0544 -43.113 -94.1831 -121.485 13.9693 100.087 41.7028 16.6959 -72.3482 33.2832 20.3234 -8.71451 2.99106 4.73129 9.9696 -172.39 72.292 87.6992 -93.9401 -54.3675 -8.20551 0.656514 25.325 26.459 -45.0032 -12.169 27.337 1.52788 5.97254 -89.9285 14.9391 3.05846 -0.308429 3.27164 3.0419 -0.442863 -19.2917 3.00962 0.625887 0.720933 3.00962 0.625886 122.171 -45.9621 -49.8768 67.0732 -1.52904 -74.6383 -33.3186 69.7886 -0.0474892 -46.967 44.5673 -92.6204 -112.317 -53.3016 48.0673 -18.5762 -10.5118 66.882 20.4206 4.93841 -84.3327 -22.7294 -5.39903 24.5881 -60.0736 12.5416 -16.7221 42.9665 26.4249 47.5498 
264.245 77.7703 -270.618 -93.7084 -43.5862 -95.4393 -119.64 13.3835 98.4084 43.8143 17.1193 -73.1543 31.2619 20.1437 -8.94629 6.46537 4.03415 9.56851 -171.307 72.2662 86.6461 -97.461 -51.9235 -9.31031 -3.22417 24.8322 31.357 -38.6639 -5.03943 20.1302 1.41613 6.09042 -89.7918 14.6983 2.90615 -0.00206464 3.03062 2.90324 -0.130082 -19.5289 2.77232 0.872128 0.483703 2.77231 0.872131 122.076 -47.9389 -50.7903 63.7921 -1.76103 -75.8936 147.503 84.355 -179.842 -23.6626 33.0003 -116.073 -111.061 -52.2279 49.2232 -19.2833 -10.3349 66.1853 19.4597 4.45123 -86.2543 -22.8315 -6.06537 27.89 -59.3922 12.7904 -16.7737 44.2649 27.1908 47.2422 
